<?xml version="1.0" standalone="no"?>
<!DOCTYPE svg PUBLIC "-//W3C//DTD SVG 20010904//EN"
 "http://www.w3.org/TR/2001/REC-SVG-20010904/DTD/svg10.dtd">
<svg version="1.0" xmlns="http://www.w3.org/2000/svg"
 width="1440.000000pt" height="1440.000000pt" viewBox="0 0 1440.000000 1440.000000"
 preserveAspectRatio="xMidYMid meet">
<metadata>
Created by potrace 1.14, written by Peter Selinger 2001-2017
</metadata>
<g transform="translate(0.000000,1440.000000) scale(0.100000,-0.100000)"
fill="#000000" stroke="none">
<path d="M7085 11893 c-64 -18 -66 -18 -90 -28 -52 -21 -121 -47 -130 -50 -5
-1 -17 -5 -25 -8 -21 -9 -74 -30 -80 -32 -3 -1 -13 -5 -22 -9 -9 -4 -22 -9
-30 -10 -7 -2 -24 -8 -38 -13 -14 -6 -79 -31 -145 -56 -66 -25 -133 -51 -150
-58 -16 -7 -33 -13 -37 -14 -5 -2 -10 -4 -13 -5 -3 -1 -8 -3 -12 -4 -8 -1 -57
-20 -108 -42 -70 -29 -211 -79 -217 -76 -5 1 -8 -3 -8 -9 0 -5 -4 -8 -9 -4 -5
3 -12 1 -16 -5 -4 -6 -10 -8 -15 -5 -5 3 -14 0 -22 -7 -7 -7 -22 -15 -33 -16
-11 -2 -58 -19 -105 -37 -113 -44 -124 -48 -130 -49 -3 -1 -9 -4 -15 -7 -8 -5
-76 -30 -95 -34 -3 -1 -16 -6 -30 -12 -14 -6 -63 -25 -110 -43 -47 -17 -94
-35 -105 -40 -49 -20 -85 -32 -91 -30 -4 1 -10 -2 -13 -7 -6 -7 -86 -39 -121
-47 -8 -2 -31 -11 -50 -20 -31 -13 -151 -59 -345 -131 -33 -12 -88 -34 -122
-48 -35 -14 -63 -23 -63 -20 0 3 -6 1 -12 -4 -7 -5 -33 -17 -58 -26 -25 -9
-58 -22 -75 -28 -16 -7 -34 -13 -40 -15 -5 -1 -75 -27 -155 -59 -80 -31 -149
-58 -155 -59 -5 -2 -19 -6 -30 -11 -11 -4 -94 -36 -185 -70 -91 -34 -174 -66
-185 -70 -11 -5 -22 -9 -25 -9 -5 -1 -42 -15 -95 -36 -91 -35 -114 -44 -140
-55 -16 -7 -41 -16 -55 -20 -14 -4 -38 -13 -55 -20 -16 -7 -57 -23 -90 -35
-33 -12 -87 -32 -120 -45 -33 -14 -79 -30 -102 -37 -24 -7 -43 -16 -43 -20 0
-5 -7 -8 -15 -8 -8 0 -54 -15 -103 -34 -97 -37 -126 -48 -130 -46 -1 0 -15 -6
-31 -14 -15 -8 -57 -25 -92 -37 -35 -12 -69 -26 -75 -30 -6 -5 -14 -6 -17 -2
-4 3 -7 2 -7 -3 0 -5 -8 -10 -17 -11 -10 -1 -34 -8 -53 -16 -19 -9 -38 -16
-42 -17 -4 0 -32 -12 -63 -25 -30 -14 -58 -25 -63 -26 -13 -3 -36 -11 -67 -24
-40 -17 -98 -35 -109 -34 -5 0 -12 -3 -15 -9 -3 -5 -33 -18 -66 -30 -56 -19
-116 -41 -245 -92 -30 -12 -59 -23 -65 -24 -5 -2 -19 -7 -30 -11 -102 -41
-253 -97 -267 -98 -10 -1 -18 -4 -18 -8 0 -3 -20 -12 -45 -19 -25 -7 -48 -17
-51 -21 -3 -5 -12 -9 -21 -9 -8 0 -29 -6 -46 -14 -79 -33 -114 -47 -127 -50
-8 -1 -25 -7 -37 -14 -12 -7 -30 -13 -41 -15 -11 -2 -27 -9 -35 -15 -8 -7 -19
-12 -23 -11 -5 1 -18 -1 -29 -6 -72 -29 -222 -88 -230 -90 -5 -1 -23 -7 -40
-14 -16 -6 -91 -35 -165 -63 -144 -54 -204 -89 -260 -150 -47 -51 -53 -58 -70
-93 -8 -16 -19 -33 -25 -37 -5 -4 -7 -8 -3 -8 4 0 0 -17 -9 -37 -21 -52 -25
-194 -7 -263 18 -66 36 -110 46 -110 5 0 8 -7 8 -15 0 -16 35 -60 86 -107 31
-29 124 -91 124 -83 0 2 45 -16 100 -41 55 -24 107 -44 115 -44 8 0 15 -4 15
-10 0 -5 5 -10 10 -10 6 0 25 -6 43 -13 18 -8 34 -14 37 -14 3 0 16 -6 30 -13
14 -8 28 -13 33 -12 4 1 7 -2 7 -6 0 -5 6 -9 13 -9 6 0 32 -9 57 -20 38 -17
246 -105 315 -134 11 -4 46 -19 78 -33 32 -14 59 -26 61 -26 2 0 21 -8 42 -17
22 -9 41 -17 44 -18 3 -1 25 -11 50 -22 25 -11 72 -30 105 -44 33 -13 75 -32
93 -41 18 -10 37 -18 42 -18 6 0 32 -10 58 -21 26 -12 62 -28 80 -35 17 -8 47
-20 65 -28 17 -8 73 -31 122 -51 95 -40 111 -46 218 -94 37 -16 67 -28 67 -26
0 3 17 -4 38 -14 50 -26 130 -61 137 -61 7 0 92 -36 115 -49 13 -7 15 -237 15
-1862 l0 -1854 24 -72 c13 -39 43 -96 65 -126 39 -52 134 -137 153 -137 4 0
45 -36 91 -80 67 -64 156 -131 182 -136 3 0 19 -7 35 -14 33 -14 38 -16 75
-25 52 -12 108 -17 190 -17 48 0 91 -5 99 -12 8 -6 16 -10 17 -9 5 3 31 -5 64
-19 14 -6 30 -13 35 -14 6 -2 116 -39 245 -83 230 -77 449 -146 494 -155 6 -2
31 -9 56 -16 25 -7 50 -15 55 -16 6 -1 37 -10 69 -19 33 -8 67 -17 75 -19 9
-2 23 -6 31 -9 15 -5 105 -27 131 -30 8 -2 19 -5 24 -9 12 -7 96 -23 108 -20
4 1 7 -2 7 -8 0 -5 7 -7 15 -4 8 4 21 2 28 -4 6 -5 20 -8 30 -7 9 2 17 0 17
-4 0 -4 10 -7 23 -8 24 -1 62 -8 122 -23 22 -5 65 -14 95 -20 30 -6 66 -13 80
-15 14 -3 41 -8 60 -11 19 -3 42 -7 49 -10 8 -3 34 -7 57 -10 23 -3 53 -7 65
-10 13 -3 38 -7 54 -9 17 -2 30 -4 30 -5 0 -2 26 -6 95 -14 55 -7 90 -13 100
-16 3 -1 8 -2 11 -2 3 1 35 -3 70 -8 35 -5 85 -11 112 -14 26 -4 68 -9 95 -12
26 -3 63 -8 82 -10 19 -2 60 -6 90 -9 30 -4 80 -8 110 -10 30 -3 89 -7 130
-11 41 -4 100 -8 130 -9 30 -2 120 -7 200 -11 169 -9 715 -9 875 0 252 14 349
21 455 31 25 3 70 7 100 10 110 10 217 22 270 30 14 2 52 7 85 11 33 3 69 8
80 10 11 3 40 7 65 10 25 2 56 7 70 10 14 2 43 7 65 10 22 3 47 8 55 11 8 3
33 7 55 8 22 2 51 6 65 9 14 4 41 9 60 12 19 3 46 8 60 10 14 3 45 10 70 14
124 25 127 25 240 50 132 29 143 32 160 34 8 1 22 5 30 9 8 3 47 13 85 22 39
8 77 17 85 19 8 3 35 9 60 15 52 13 63 16 109 30 18 6 36 10 40 9 3 -1 13 1
21 5 8 3 42 13 75 22 33 10 67 20 75 23 17 6 32 10 58 16 9 3 17 5 17 6 0 1 8
3 18 5 9 2 104 32 210 66 105 35 194 63 197 64 3 1 18 7 33 13 16 7 31 12 34
12 12 0 239 84 248 92 5 4 14 8 21 8 6 0 29 8 50 17 22 9 41 17 44 18 13 2
106 39 115 45 13 9 77 30 89 29 5 0 12 4 16 11 4 6 13 13 21 14 8 1 28 9 44
16 17 7 48 21 70 30 22 9 69 30 105 46 148 64 236 140 290 249 41 84 48 125
48 281 1 75 2 138 4 139 2 2 1 56 -2 120 -3 64 -3 118 0 120 3 2 3 74 0 160
-3 86 -2 159 3 162 4 2 5 8 2 12 -2 5 -4 53 -4 107 0 126 0 135 -5 159 -2 11
1 28 5 37 6 10 5 19 -1 23 -8 5 -8 11 -1 19 6 7 8 15 5 18 -6 6 -9 177 -3 183
2 2 2 56 -1 120 -3 64 -3 118 0 120 3 2 3 56 0 120 -3 64 -2 119 3 122 4 2 5
8 2 13 -3 4 -5 34 -5 67 1 82 0 95 -4 118 -2 11 1 28 5 37 6 10 5 19 -1 23 -8
5 -8 11 -1 19 6 7 8 15 5 18 -5 6 -8 257 -2 263 1 2 1 74 -2 160 -3 86 -3 158
0 160 3 2 3 74 0 160 -3 86 -3 158 0 160 3 2 3 74 0 160 -3 86 -2 159 3 162 4
2 5 8 2 12 -4 7 -5 60 -4 214 0 9 -1 34 -2 54 -1 43 25 71 48 51 10 -8 12 -8
9 3 -4 9 8 20 29 30 19 9 32 12 29 7 -3 -5 10 0 29 11 19 11 38 17 41 14 3 -4
6 -1 6 6 0 8 7 11 15 7 8 -3 15 -1 15 4 0 5 11 12 25 16 14 3 25 10 25 14 0 4
10 7 23 6 12 0 30 7 40 17 10 10 25 16 33 13 8 -3 14 -2 14 3 0 9 48 26 63 23
4 -1 7 3 7 9 0 5 5 7 10 4 6 -3 10 -2 10 4 0 5 9 8 20 6 11 -2 18 0 15 6 -6 8
2 11 21 8 4 0 10 5 14 12 4 6 21 12 38 13 17 0 28 4 25 9 -5 8 41 28 70 31 10
0 21 6 25 12 4 6 19 14 35 18 15 3 27 12 27 18 0 7 7 3 15 -8 11 -13 13 -14 9
-3 -5 17 20 34 36 24 4 -3 11 2 14 11 5 14 9 14 23 3 9 -8 14 -9 10 -3 -8 14
86 59 102 49 7 -4 10 -1 9 7 -2 8 7 13 24 12 15 0 26 5 25 10 -1 6 4 10 11 8
6 -1 12 3 12 9 0 6 7 9 15 5 8 -3 15 0 15 5 0 7 11 9 24 7 18 -4 23 -1 18 10
-3 10 -1 13 6 8 6 -3 13 -2 17 4 3 5 15 10 25 10 10 0 26 7 35 16 8 9 22 14
29 11 8 -3 17 1 20 9 3 8 16 14 30 14 13 0 26 5 28 11 2 5 12 12 23 14 11 2
21 4 23 5 1 2 5 3 10 4 4 1 13 5 20 9 6 5 17 5 24 1 7 -5 8 -3 3 6 -6 10 -4
12 11 6 10 -4 15 -4 11 0 -9 9 42 36 54 28 5 -3 9 0 9 6 0 6 5 8 10 5 6 -3 17
1 26 9 8 9 22 16 30 16 8 0 14 5 14 12 0 6 3 9 6 5 4 -3 20 1 36 9 16 8 33 12
38 9 6 -3 10 -2 10 3 0 13 57 35 70 27 6 -3 9 -1 8 6 -2 7 3 14 10 15 6 1 15
3 20 4 4 1 11 2 17 0 5 -1 15 6 21 15 7 9 15 16 18 15 4 -1 21 4 39 11 18 6
35 11 40 10 4 0 7 3 7 8 0 8 34 21 54 20 5 -1 12 3 15 8 11 15 52 34 61 28 6
-4 10 -1 10 5 0 6 5 8 11 5 6 -4 17 1 24 11 8 11 15 15 15 11 0 -5 16 1 35 13
19 12 39 19 45 15 6 -4 10 -3 9 2 -4 23 2 32 18 26 9 -4 14 -2 11 3 -5 8 23
43 29 37 2 -2 3 -1 3 2 0 9 45 50 52 48 4 -2 5 3 2 10 -2 7 4 24 16 37 11 13
20 31 20 41 0 10 5 21 11 25 6 3 9 15 6 25 -3 10 0 20 7 22 15 5 19 194 4 238
-23 75 -75 165 -123 215 -28 30 -56 54 -62 54 -6 0 -13 4 -15 8 -3 9 -110 62
-125 62 -4 1 -26 9 -48 20 -22 11 -47 19 -56 20 -9 0 -19 3 -23 8 -4 4 -11 7
-14 8 -4 0 -20 6 -35 12 -16 7 -31 12 -34 12 -3 0 -19 6 -36 14 -18 8 -70 29
-117 46 -47 18 -99 38 -117 46 -17 8 -33 14 -36 14 -3 0 -18 5 -34 12 -15 6
-30 12 -33 13 -3 1 -18 7 -35 14 -16 6 -55 21 -85 32 -30 12 -64 25 -75 30
-20 8 -135 52 -145 54 -8 2 -43 16 -65 25 -11 5 -69 28 -130 50 -60 23 -120
46 -132 51 -30 12 -53 21 -138 54 -38 15 -96 38 -127 51 -32 13 -58 21 -58 18
0 -2 -10 1 -22 8 -13 7 -25 13 -28 13 -5 1 -163 61 -195 74 -69 29 -267 104
-280 107 -5 1 -30 11 -55 22 -25 11 -61 25 -80 32 -19 7 -44 16 -55 20 -29 12
-60 22 -60 19 0 -1 -18 7 -40 18 -22 11 -64 28 -94 38 -29 9 -65 24 -80 31
-14 8 -30 14 -34 14 -5 0 -23 6 -40 14 -18 8 -70 28 -117 46 -47 17 -94 36
-105 40 -11 5 -69 27 -130 50 -60 22 -119 45 -130 50 -23 10 -57 22 -67 25 -5
2 -11 4 -15 5 -5 1 -11 2 -15 1 -5 0 -8 4 -8 9 0 6 -6 10 -14 10 -8 0 -27 5
-43 12 -15 6 -30 12 -33 13 -3 1 -18 7 -33 13 -16 7 -32 12 -36 12 -5 0 -34
12 -65 26 -31 14 -62 27 -69 28 -7 1 -29 10 -51 19 -21 9 -41 17 -45 17 -6 0
-197 74 -250 97 -18 8 -39 16 -45 17 -11 1 -100 35 -161 61 -36 15 -178 69
-185 70 -3 1 -21 8 -41 17 -20 9 -47 19 -60 23 -13 4 -37 13 -54 20 -16 7 -68
27 -115 45 -47 17 -98 37 -115 44 -41 19 -78 30 -87 28 -5 -1 -8 2 -8 8 0 5
-11 10 -25 10 -14 0 -25 5 -25 10 0 6 -6 10 -14 10 -8 0 -27 5 -43 12 -15 6
-33 12 -39 13 -6 2 -27 10 -45 18 -36 16 -151 61 -159 63 -3 0 -14 4 -25 8
-40 16 -50 19 -55 21 -3 1 -18 7 -33 13 -16 7 -30 12 -31 12 -2 0 -21 8 -42
17 -22 9 -41 17 -44 18 -9 2 -124 45 -145 55 -11 4 -49 20 -85 33 -36 13 -74
28 -85 32 -11 5 -22 9 -25 10 -3 1 -18 7 -35 14 -16 7 -37 14 -45 16 -8 2 -67
25 -130 50 -63 26 -122 48 -130 50 -8 2 -53 19 -100 38 -47 19 -130 51 -185
72 -92 34 -113 42 -170 66 -75 31 -194 73 -215 76 -70 10 -160 8 -205 -4z"/>
</g>
</svg>
